# xmcd
#
# Track frame offsets: 
#        150
#        13206
#        25592
#        37241
#        50281
#        62446
#        74339
#        85306
#        96490
#        111591
#        135627
#        153816
#        167320
#        182254
#        200909
#        214859
#        229316
#        245311
#        262651
#        276430
#        289711
#        309741
#        325982
#
# Disc length: 4527 seconds
#
# Revision: 0
# Processed by: cddbd v1.5.1PL0 Copyright (c) Steve Scherf et al.
# Submitted via: ExactAudioCopy v0.90b4
#
DISCID=4c11ad17
DTITLE=Tyrone Davis - Turning Back The Hands Of Time
DYEAR=1998
DGENRE=Soul
TTITLE0=Can I Change My Mind?
TTITLE1=A Woman Needs To Be Loved
TTITLE2=Is It Something You've Got?
TTITLE3=Turn Back The Hands Of Time
TTITLE4=I'll Be Right Here
TTITLE5=Let Me Back In
TTITLE6=Could I Forget You
TTITLE7=One Way Ticket
TTITLE8=You Keep Me Hanging On
TTITLE9=I Had It All The Time
TTITLE10=Was I Just A Fool?
TTITLE11=If You Had A Change In Mind
TTITLE12=Without You In My Life
TTITLE13=There It Is
TTITLE14=Wrapped Up In Your Warm And Tender Love
TTITLE15=I Wish It Was Me
TTITLE16=What Goes Up (Must Come Down)
TTITLE17=Happiness Is Being With You
TTITLE18=I Can't Make It Without You
TTITLE19=Homewreckers
TTITLE20=Turning Point
TTITLE21=So Good (To Be Home With You)
TTITLE22=Everlovin' Girl
EXTD=
EXTT0=
EXTT1=
EXTT2=
EXTT3=
EXTT4=
EXTT5=
EXTT6=
EXTT7=
EXTT8=
EXTT9=
EXTT10=
EXTT11=
EXTT12=
EXTT13=
EXTT14=
EXTT15=
EXTT16=
EXTT17=
EXTT18=
EXTT19=
EXTT20=
EXTT21=
EXTT22=
PLAYORDER=
